<?xml version="1.0" encoding="UTF-8" standalone="no"?>
<!-- Created with Inkscape (http://www.inkscape.org/) -->

<svg
   version="1.1"
   id="svg2"
   width="1496"
   height="1496"
   viewBox="0 0 1496 1496"
   sodipodi:docname="5613.eps"
   xmlns:inkscape="http://www.inkscape.org/namespaces/inkscape"
   xmlns:sodipodi="http://sodipodi.sourceforge.net/DTD/sodipodi-0.dtd"
   xmlns="http://www.w3.org/2000/svg"
   xmlns:svg="http://www.w3.org/2000/svg">
  <defs
     id="defs6" />
  <sodipodi:namedview
     id="namedview4"
     pagecolor="#ffffff"
     bordercolor="#000000"
     borderopacity="0.25"
     inkscape:showpageshadow="2"
     inkscape:pageopacity="0.0"
     inkscape:pagecheckerboard="0"
     inkscape:deskcolor="#d1d1d1" />
  <g
     id="g8"
     inkscape:groupmode="layer"
     inkscape:label="ink_ext_XXXXXX"
     transform="matrix(1.3333333,0,0,-1.3333333,0,1496)">
    <g
       id="g10"
       transform="scale(0.1)">
      <path
         d="M 11220,0 H 0 V 11220 H 11220 V 0"
         style="fill:#ffffff;fill-opacity:1;fill-rule:nonzero;stroke:none"
         id="path12" />
      <path
         d="m 8754.03,3133.45 -28.33,28.43 -686.06,-685.99 16.7,-16.55 181.93,-181.65 c 116.56,-116.81 364.64,-57.81 554.24,131.51 189.44,189.67 248.38,437.71 131.82,554.24 l -170.01,170.01 h -0.29"
         style="fill:#616e7d;fill-opacity:1;fill-rule:nonzero;stroke:none"
         id="path14" />
      <path
         d="m 8557.82,3326.87 -686.07,-685.55 167.89,-165.43 686.06,685.99 -19.61,19.61 -0.55,-0.3 -147.72,145.68"
         style="fill:#aad4c8;fill-opacity:1;fill-rule:nonzero;stroke:none"
         id="path16" />
      <path
         d="m 4945.46,4449.16 c -1037.98,0 -1879.7,841.47 -1879.7,1879.68 0,1038.26 841.72,1879.68 1879.7,1879.68 1038.24,0 1879.77,-841.42 1879.77,-1879.68 0,-1038.21 -841.53,-1879.68 -1879.77,-1879.68 z m -36.55,4553.14 c -1476.34,0 -2673.07,-1197.03 -2673.07,-2673.46 0,-1476.37 1196.73,-2673.17 2673.07,-2673.17 547.35,0 1055.42,164.74 1479.37,446.95 l 1483.47,-1461.3 686.07,685.55 -1473.8,1451.58 c 312.53,437.48 498.33,971.84 498.33,1550.39 0,1476.43 -1196.74,2673.46 -2673.44,2673.46"
         style="fill:#616e7d;fill-opacity:1;fill-rule:nonzero;stroke:none"
         id="path18" />
      <path
         d="M 5268.52,7491.95 3955.47,5840.35 c -43.39,-54.92 -34.37,-134.73 20.51,-178.66 23.42,-18.34 51.32,-27.45 79.1,-27.45 37.16,0 74.45,16.25 99.5,48 l 1312.88,1651.7 c 43.76,54.92 34.37,134.65 -20.58,178.35 -54.89,43.33 -134.9,34.61 -178.36,-20.34"
         style="fill:#82bfab;fill-opacity:1;fill-rule:nonzero;stroke:none"
         id="path20" />
      <path
         d="M 5819.2,6941.34 4506.08,5289.67 c -43.69,-54.92 -34.38,-134.66 20.59,-178.63 23.41,-18.36 51.31,-27.44 78.97,-27.44 37.28,0 74.32,16.52 99.37,47.99 l 1313.12,1651.67 c 43.64,54.92 34.37,134.69 -20.58,178.62 -54.71,43.46 -134.9,34.35 -178.35,-20.54"
         style="fill:#82bfab;fill-opacity:1;fill-rule:nonzero;stroke:none"
         id="path22" />
    </g>
  </g>
</svg>
